<?xml version="1.0" encoding="utf-8"?><svg viewBox="0 0 24 24" xmlns="http://www.w3.org/2000/svg" xmlns:xlink="http://www.w3.org/1999/xlink"><style>:root>svg{display:none}:root>svg:target{display:block}</style><svg fill="none" viewBox="0 0 24 24" id="menu" xmlns="http://www.w3.org/2000/svg"><path d="M0 4h24v1.5H0V4zm0 7.5h24V13H0v-1.5zM0 19h24v1.5H0V19z" fill="#E04E39"/></svg><svg fill="none" viewBox="0 0 24 24" id="odnoklassniki" xmlns="http://www.w3.org/2000/svg"><g clip-path="url(#bclip0_27_987)"><path d="M12.132 9.549a2.026 2.026 0 100-4.053 2.026 2.026 0 000 4.053z" fill="#E04E39"/><path d="M12 0C5.373 0 0 5.373 0 12s5.373 12 12 12 12-5.373 12-12S18.627 0 12 0zm.132 3.403a4.119 4.119 0 110 8.238 4.119 4.119 0 010-8.238zm3.662 10.612c-.876.562-2.076.775-2.86.856l3.083 3.083a.945.945 0 010 1.335l-.111.112a.945.945 0 01-1.336 0l-2.427-2.427L9.716 19.4a.945.945 0 01-1.336 0l-.111-.111a.944.944 0 010-1.336l2.427-2.427.654-.654c-.783-.08-1.996-.291-2.88-.858-1.033-.664-1.491-1.057-1.086-1.872.233-.467.877-.856 1.733-.181 1.157.912 3.015.912 3.015.912s1.859 0 3.016-.912c.856-.675 1.5-.286 1.732.181.405.815-.052 1.209-1.086 1.872z" fill="#E04E39"/><path d="M15.794 14.015c-.876.562-2.076.775-2.86.856l3.083 3.083a.945.945 0 010 1.336l-.111.11a.945.945 0 01-1.336 0l-2.427-2.426L9.716 19.4a.945.945 0 01-1.336 0l-.111-.111a.944.944 0 010-1.336l3.081-3.081c-.783-.08-1.996-.291-2.88-.858-1.033-.664-1.491-1.057-1.086-1.872.233-.467.877-.855 1.733-.18 1.157.91 3.015.91 3.015.91s1.859 0 3.016-.91c.856-.675 1.5-.287 1.732.18.405.815-.052 1.209-1.086 1.872z" fill="#fff"/><path fill-rule="evenodd" clip-rule="evenodd" d="M12.132 3.403a4.119 4.119 0 110 8.238 4.119 4.119 0 010-8.238zm0 6.146a2.026 2.026 0 100-4.053 2.026 2.026 0 000 4.053z" fill="#fff"/><path fill-rule="evenodd" clip-rule="evenodd" d="M16.251 7.522a4.119 4.119 0 10-8.238 0 4.119 4.119 0 008.238 0zm-3.317 7.349c.784-.08 1.984-.294 2.86-.856 1.034-.663 1.491-1.057 1.086-1.872-.232-.467-.876-.855-1.732-.18-1.157.91-3.016.91-3.016.91s-1.858 0-3.015-.91c-.856-.675-1.5-.287-1.733.18-.405.815.053 1.208 1.086 1.872.884.567 2.097.779 2.88.858l-3.081 3.08a.944.944 0 000 1.337l.111.11a.945.945 0 001.336 0l2.427-2.426L14.57 19.4a.945.945 0 001.336 0l.111-.111a.945.945 0 000-1.336l-3.083-3.083zm-.802-5.322a2.026 2.026 0 100-4.053 2.026 2.026 0 000 4.053z" fill="#fff"/></g><defs><clipPath id="bclip0_27_987"><path fill="#fff" d="M0 0h24v24H0z"/></clipPath></defs></svg><svg fill="none" viewBox="0 0 24 24" id="phone" xmlns="http://www.w3.org/2000/svg"><path d="M20.333 16.1v2.5a1.666 1.666 0 01-1.816 1.667 16.492 16.492 0 01-7.192-2.559 16.251 16.251 0 01-5-5 16.492 16.492 0 01-2.558-7.225 1.666 1.666 0 011.658-1.816h2.5A1.667 1.667 0 019.592 5.1c.105.8.3 1.586.583 2.342A1.667 1.667 0 019.8 9.2l-1.058 1.058a13.333 13.333 0 005 5L14.8 14.2a1.667 1.667 0 011.758-.375 10.68 10.68 0 002.342.583 1.667 1.667 0 011.433 1.692z" fill="#E04E39"/></svg><svg fill="none" viewBox="0 0 24 24" id="rutube" xmlns="http://www.w3.org/2000/svg"><circle cx="12" cy="12" r="12" fill="#E04E39"/><path d="M18 8a1 1 0 100-2 1 1 0 000 2zm-3.22 0H6v10h2.444v-3.253h4.683L15.263 18H18l-2.356-3.268c.732-.12 1.258-.405 1.58-.855.322-.45.483-1.17.483-2.129v-.75c0-.57-.058-1.019-.16-1.364a2.291 2.291 0 00-.527-.914 2.373 2.373 0 00-.908-.555C15.761 8.06 15.322 8 14.781 8zm-.395 4.543H8.444v-2.34h5.941c.337 0 .571.06.688.166.117.105.19.3.19.585v.84c0 .299-.073.494-.19.599-.117.105-.351.15-.688.15z" fill="#fff"/></svg><svg fill="none" viewBox="0 0 24 24" id="search" xmlns="http://www.w3.org/2000/svg"><path d="M21 21l-4.35-4.35M19 11a8 8 0 11-16 0 8 8 0 0116 0z" stroke="#E04E39" stroke-width="1.5" stroke-linecap="round" stroke-linejoin="round"/></svg><svg fill="none" viewBox="0 0 24 24" id="telegram" xmlns="http://www.w3.org/2000/svg"><g clip-path="url(#fclip0_27_989)"><path d="M12 0C5.373 0 0 5.373 0 12s5.373 12 12 12 12-5.373 12-12S18.627 0 12 0zm6.75 5.577l-2.687 12.618a.362.362 0 01-.547.235l-4.131-2.74-2.174 2.022a.362.362 0 01-.577-.155l-1.415-4.463-3.8-1.559c-.291-.132-.287-.597.011-.713l14.834-5.654a.362.362 0 01.486.41z" fill="#E04E39"/><path d="M9.09 16.233l.242-2.294 6.701-6.55-8.09 5.312 1.148 3.532z" fill="#E04E39"/><path fill-rule="evenodd" clip-rule="evenodd" d="M18.75 5.577l-2.686 12.618a.362.362 0 01-.548.235l-4.131-2.74-2.174 2.022a.362.362 0 01-.577-.155l-1.415-4.463-3.8-1.559c-.291-.132-.287-.597.012-.713l14.833-5.655a.362.362 0 01.486.41zM9.332 13.94l-.241 2.294-1.148-3.532 8.09-5.312-6.701 6.55z" fill="#fff"/></g><defs><clipPath id="fclip0_27_989"><path fill="#fff" d="M0 0h24v24H0z"/></clipPath></defs></svg><svg fill="none" viewBox="0 0 24 24" id="vk" xmlns="http://www.w3.org/2000/svg"><g clip-path="url(#gclip0_27_988)"><path d="M12 0C5.373 0 0 5.373 0 12s5.373 12 12 12 12-5.373 12-12S18.627 0 12 0zm5.204 13.586c.094.117.319.345.674.683h.008l.009.008.008.009.017.016c.782.727 1.312 1.34 1.59 1.84a.999.999 0 01.054.105.96.96 0 01.058.22.65.65 0 01-.004.283c-.022.083-.091.16-.208.23-.116.069-.28.103-.491.103l-2.132.034a.934.934 0 01-.466-.042 2.042 2.042 0 01-.433-.183l-.166-.1a3.897 3.897 0 01-.583-.533 14.745 14.745 0 01-.57-.645 2.77 2.77 0 00-.509-.483c-.18-.13-.337-.174-.47-.13a.654.654 0 00-.067.03 1.066 1.066 0 00-.32.366 1.71 1.71 0 00-.142.433 2.71 2.71 0 00-.054.646c0 .083-.01.16-.03.229a.56.56 0 01-.062.154l-.033.041c-.1.106-.247.167-.441.183h-.958c-.394.023-.8-.023-1.216-.137a4.655 4.655 0 01-1.094-.441c-.314-.18-.6-.364-.858-.55a4.968 4.968 0 01-.587-.478l-.208-.2a5.283 5.283 0 01-.229-.25 18.36 18.36 0 01-.595-.758c-.3-.394-.594-.813-.883-1.257a25.618 25.618 0 01-1.02-1.757A27.457 27.457 0 013.706 8.99a.662.662 0 01-.05-.224.27.27 0 01.025-.134l.034-.05c.083-.105.241-.158.474-.158l2.282-.017a.891.891 0 01.325.125l.041.025c.089.062.155.15.2.267.11.278.239.565.383.862.144.297.258.523.341.678l.133.242c.161.333.317.622.467.866.15.244.284.434.404.57.119.136.234.243.345.32.111.079.206.117.284.117a.623.623 0 00.224-.041.148.148 0 00.042-.042 1.35 1.35 0 00.212-.575c.025-.16.052-.385.08-.674a6.473 6.473 0 000-1.04 3.9 3.9 0 00-.075-.608 1.61 1.61 0 00-.117-.383l-.05-.1c-.139-.189-.375-.308-.708-.358-.072-.011-.058-.078.042-.2.094-.106.2-.189.316-.25.294-.144.958-.21 1.99-.2.455.006.83.042 1.124.108a.965.965 0 01.28.113.448.448 0 01.17.2c.039.086.068.174.087.266.02.092.03.218.03.379 0 .16-.003.314-.009.458l-.02.587c-.009.247-.013.476-.013.687 0 .061-.003.177-.008.35a6.613 6.613 0 00-.005.399c.003.094.013.207.03.337.016.13.048.24.095.325a.55.55 0 00.188.204l.141.033c.05.011.122-.019.217-.091.094-.072.2-.168.316-.288a4.27 4.27 0 00.433-.557c.172-.252.36-.551.566-.895.333-.578.63-1.202.89-1.874a.567.567 0 01.084-.146.37.37 0 01.092-.087l.033-.025.042-.021a.682.682 0 01.275-.029l2.397-.017c.217-.027.395-.02.533.02.139.042.225.088.258.138l.05.083c.128.356-.288 1.171-1.248 2.448a75.17 75.17 0 01-.541.708c-.433.556-.683.919-.75 1.092-.094.227-.055.451.117.673z" fill="#E04E39"/><path d="M17.204 13.586c.094.117.319.345.674.683h.008l.009.008.008.009.017.016c.782.728 1.312 1.341 1.59 1.84a.999.999 0 01.054.105.96.96 0 01.058.22.65.65 0 01-.004.283c-.022.083-.091.16-.208.23-.116.069-.28.103-.491.103l-2.132.034a.936.936 0 01-.466-.042 2.047 2.047 0 01-.433-.183l-.166-.1a3.902 3.902 0 01-.583-.533 14.804 14.804 0 01-.57-.645 2.77 2.77 0 00-.509-.483c-.18-.13-.337-.174-.47-.13a.654.654 0 00-.067.03 1.066 1.066 0 00-.32.366 1.71 1.71 0 00-.142.433 2.71 2.71 0 00-.054.646c0 .083-.01.16-.03.229a.56.56 0 01-.062.154l-.033.041c-.1.106-.247.167-.441.183h-.958c-.394.023-.8-.023-1.216-.137a4.65 4.65 0 01-1.094-.441c-.314-.18-.6-.364-.858-.55a4.968 4.968 0 01-.587-.478l-.208-.2a5.245 5.245 0 01-.229-.25 18.33 18.33 0 01-.595-.758c-.3-.394-.594-.813-.883-1.257a25.6 25.6 0 01-1.02-1.757A27.44 27.44 0 013.706 8.99a.662.662 0 01-.05-.224.27.27 0 01.025-.134l.034-.05c.083-.105.241-.158.474-.158l2.282-.016a.891.891 0 01.325.124l.041.025c.089.062.155.15.2.267.11.278.239.565.383.862.144.297.258.523.341.678l.133.242c.161.333.317.622.467.866.15.244.284.434.404.57.119.136.234.243.345.32.111.079.206.117.284.117a.623.623 0 00.224-.041.148.148 0 00.042-.042 1.35 1.35 0 00.212-.575c.025-.16.052-.385.08-.674a6.473 6.473 0 000-1.04 3.9 3.9 0 00-.075-.608 1.61 1.61 0 00-.117-.383l-.05-.1c-.139-.189-.375-.308-.708-.358-.072-.011-.058-.078.042-.2.094-.105.2-.188.316-.25.294-.144.958-.21 1.99-.2.455.006.83.042 1.124.108a.965.965 0 01.28.113.448.448 0 01.17.2c.039.086.068.174.087.266.02.092.03.218.03.379 0 .16-.003.314-.009.458l-.02.587c-.009.247-.013.476-.013.687 0 .061-.003.177-.008.35a6.613 6.613 0 00-.005.399c.003.094.013.207.03.337.016.13.048.24.095.325a.55.55 0 00.188.204l.141.033c.05.011.122-.019.217-.091.094-.072.2-.168.316-.287a4.27 4.27 0 00.433-.558c.172-.252.36-.55.566-.895.333-.577.63-1.202.89-1.874a.567.567 0 01.084-.146.37.37 0 01.092-.087l.033-.025a.469.469 0 01.15-.046.682.682 0 01.167-.004l2.397-.017c.217-.027.395-.02.533.02.139.042.225.088.258.138l.05.083c.128.356-.288 1.171-1.248 2.448a75.17 75.17 0 01-.541.708c-.433.556-.683.92-.75 1.092-.094.227-.055.451.117.673z" fill="#fff"/><path d="M17.204 13.586c.094.117.319.345.674.683h.008l.009.008.008.009.017.016c.782.728 1.312 1.341 1.59 1.84a.999.999 0 01.054.105.96.96 0 01.058.22.65.65 0 01-.004.283c-.022.083-.091.16-.208.23-.116.069-.28.103-.491.103l-2.132.034a.936.936 0 01-.466-.042 2.047 2.047 0 01-.433-.183l-.166-.1a3.902 3.902 0 01-.583-.533 14.804 14.804 0 01-.57-.645 2.77 2.77 0 00-.509-.483c-.18-.13-.337-.174-.47-.13a.654.654 0 00-.067.03 1.066 1.066 0 00-.32.366 1.71 1.71 0 00-.142.433 2.71 2.71 0 00-.054.646c0 .083-.01.16-.03.229a.56.56 0 01-.062.154l-.033.041c-.1.106-.247.167-.441.183h-.958c-.394.023-.8-.023-1.216-.137a4.65 4.65 0 01-1.094-.441c-.314-.18-.6-.364-.858-.55a4.968 4.968 0 01-.587-.478l-.208-.2a5.245 5.245 0 01-.229-.25 18.33 18.33 0 01-.595-.758c-.3-.394-.594-.813-.883-1.257a25.6 25.6 0 01-1.02-1.757A27.44 27.44 0 013.706 8.99a.662.662 0 01-.05-.224.27.27 0 01.025-.134l.034-.05c.083-.105.241-.158.474-.158l2.282-.016a.891.891 0 01.325.124l.041.025c.089.062.155.15.2.267.11.278.239.565.383.862.144.297.258.523.341.678l.133.242c.161.333.317.622.467.866.15.244.284.434.404.57.119.136.234.243.345.32.111.079.206.117.284.117a.623.623 0 00.224-.041.148.148 0 00.042-.042 1.35 1.35 0 00.212-.575c.025-.16.052-.385.08-.674a6.473 6.473 0 000-1.04 3.9 3.9 0 00-.075-.608 1.61 1.61 0 00-.117-.383l-.05-.1c-.139-.189-.375-.308-.708-.358-.072-.011-.058-.078.042-.2.094-.105.2-.188.316-.25.294-.144.958-.21 1.99-.2.455.006.83.042 1.124.108a.965.965 0 01.28.113.448.448 0 01.17.2c.039.086.068.174.087.266.02.092.03.218.03.379 0 .16-.003.314-.009.458l-.02.587c-.009.247-.013.476-.013.687 0 .061-.003.177-.008.35a6.613 6.613 0 00-.005.399c.003.094.013.207.03.337.016.13.048.24.095.325a.55.55 0 00.188.204l.141.033c.05.011.122-.019.217-.091.094-.072.2-.168.316-.287a4.27 4.27 0 00.433-.558c.172-.252.36-.55.566-.895.333-.577.63-1.202.89-1.874a.567.567 0 01.084-.146.37.37 0 01.092-.087l.033-.025a.469.469 0 01.15-.046.682.682 0 01.167-.004l2.397-.017c.217-.027.395-.02.533.02.139.042.225.088.258.138l.05.083c.128.356-.288 1.171-1.248 2.448a75.17 75.17 0 01-.541.708c-.433.556-.683.92-.75 1.092-.094.227-.055.451.117.673z" fill="#fff"/></g><defs><clipPath id="gclip0_27_988"><path fill="#fff" d="M0 0h24v24H0z"/></clipPath></defs></svg></svg>