<svg width="168" height="20" viewBox="0 0 168 20" fill="none" xmlns="http://www.w3.org/2000/svg">
<path d="M5.98 15.26C7.92 15.26 9.62 14.26 10.48 12.66L8.62 11.6C8.14 12.54 7.14 13.14 5.96 13.14C5.08 13.14 4.34 12.84 3.74 12.24C3.16 11.64 2.86 10.9 2.86 10C2.86 9.1 3.16 8.36 3.74 7.76C4.34 7.16 5.08 6.86 5.96 6.86C7.16 6.86 8.12 7.44 8.58 8.4L10.44 7.32C9.64 5.74 7.92 4.74 5.98 4.74C4.48 4.74 3.22 5.24 2.2 6.26C1.2 7.26 0.7 8.5 0.7 10C0.7 11.48 1.2 12.72 2.2 13.74C3.22 14.76 4.48 15.26 5.98 15.26ZM19.805 15.26C21.285 15.26 22.525 14.76 23.545 13.74C24.565 12.72 25.085 11.48 25.085 10C25.085 8.52 24.565 7.28 23.545 6.26C22.525 5.24 21.285 4.74 19.805 4.74C18.345 4.74 17.085 5.24 16.065 6.26C15.045 7.28 14.525 8.52 14.525 10C14.525 11.48 15.045 12.72 16.065 13.74C17.085 14.76 18.345 15.26 19.805 15.26ZM17.585 12.26C16.985 11.66 16.685 10.9 16.685 10C16.685 9.1 16.985 8.34 17.585 7.74C18.185 7.14 18.925 6.84 19.805 6.84C20.685 6.84 21.425 7.14 22.025 7.74C22.625 8.34 22.925 9.1 22.925 10C22.925 10.9 22.625 11.66 22.025 12.26C21.425 12.86 20.685 13.16 19.805 13.16C18.925 13.16 18.185 12.86 17.585 12.26ZM41.1581 4.74C39.7781 4.74 38.7581 5.26 38.0981 6.32C37.4781 5.26 36.5381 4.74 35.2581 4.74C33.9981 4.74 33.0381 5.22 32.3981 6.2V5H30.2381V15H32.3981V9.4C32.3981 7.66 33.3181 6.76 34.6181 6.76C35.8181 6.76 36.4981 7.56 36.4981 8.94V15H38.6581V9.4C38.6581 7.64 39.4981 6.76 40.8381 6.76C42.0381 6.76 42.7781 7.56 42.7781 8.94V15H44.9381V8.8C44.9381 6.32 43.4181 4.74 41.1581 4.74ZM56.1098 4.74C54.5898 4.74 53.4298 5.3 52.6098 6.44V5H50.4498V19H52.6098V13.58C53.4298 14.7 54.5898 15.26 56.1098 15.26C57.4898 15.26 58.6498 14.76 59.6298 13.74C60.6098 12.72 61.0898 11.48 61.0898 10C61.0898 8.54 60.6098 7.3 59.6298 6.28C58.6498 5.26 57.4898 4.74 56.1098 4.74ZM53.5098 12.3C52.9098 11.68 52.6098 10.92 52.6098 10C52.6098 9.08 52.9098 8.32 53.5098 7.72C54.1098 7.1 54.8698 6.8 55.7698 6.8C56.6698 6.8 57.4298 7.1 58.0298 7.72C58.6298 8.32 58.9298 9.08 58.9298 10C58.9298 10.92 58.6298 11.68 58.0298 12.3C57.4298 12.9 56.6698 13.2 55.7698 13.2C54.8698 13.2 54.1098 12.9 53.5098 12.3ZM74.1675 6.42C73.3475 5.3 72.1875 4.74 70.6675 4.74C69.2875 4.74 68.1275 5.24 67.1475 6.26C66.1675 7.28 65.6875 8.52 65.6875 10C65.6875 11.46 66.1675 12.72 67.1475 13.74C68.1275 14.76 69.2875 15.26 70.6675 15.26C72.1875 15.26 73.3475 14.7 74.1675 13.56V15H76.3275V5H74.1675V6.42ZM68.7475 12.3C68.1475 11.68 67.8475 10.92 67.8475 10C67.8475 9.08 68.1475 8.32 68.7475 7.72C69.3475 7.1 70.1075 6.8 71.0075 6.8C71.9075 6.8 72.6675 7.1 73.2675 7.72C73.8675 8.32 74.1675 9.08 74.1675 10C74.1675 10.92 73.8675 11.68 73.2675 12.3C72.6675 12.9 71.9075 13.2 71.0075 13.2C70.1075 13.2 69.3475 12.9 68.7475 12.3ZM87.3052 4.74C85.8852 4.74 84.8652 5.26 84.2052 6.28V5H82.0452V15H84.2052V9.64C84.2052 7.7 85.2252 6.76 86.7452 6.76C88.1252 6.76 88.9852 7.58 88.9852 9.08V15H91.1452V8.86C91.1452 6.3 89.6052 4.74 87.3052 4.74ZM100.656 12.26L97.6756 5H95.3156L99.5556 14.82L99.4556 15.02C98.9156 16.4 98.1556 17.06 96.7956 16.98V19C99.0956 19.14 100.716 17.9 101.676 15.32L105.516 5H103.216L100.656 12.26ZM120.426 15V0.4H118.266V15H120.426ZM130.854 15.26C132.334 15.26 133.574 14.76 134.594 13.74C135.614 12.72 136.134 11.48 136.134 10C136.134 8.52 135.614 7.28 134.594 6.26C133.574 5.24 132.334 4.74 130.854 4.74C129.394 4.74 128.134 5.24 127.114 6.26C126.094 7.28 125.574 8.52 125.574 10C125.574 11.48 126.094 12.72 127.114 13.74C128.134 14.76 129.394 15.26 130.854 15.26ZM128.634 12.26C128.034 11.66 127.734 10.9 127.734 10C127.734 9.1 128.034 8.34 128.634 7.74C129.234 7.14 129.974 6.84 130.854 6.84C131.734 6.84 132.474 7.14 133.074 7.74C133.674 8.34 133.974 9.1 133.974 10C133.974 10.9 133.674 11.66 133.074 12.26C132.474 12.86 131.734 13.16 130.854 13.16C129.974 13.16 129.234 12.86 128.634 12.26ZM149.247 6.48C148.427 5.32 147.267 4.74 145.767 4.74C144.347 4.74 143.167 5.24 142.187 6.26C141.207 7.26 140.727 8.48 140.727 9.9C140.727 11.32 141.207 12.54 142.187 13.56C143.167 14.56 144.347 15.06 145.767 15.06C147.267 15.06 148.427 14.48 149.247 13.32V14.54C149.247 16.28 148.127 17.3 146.267 17.3C144.847 17.3 143.867 16.78 143.347 15.76L141.487 16.84C142.347 18.46 143.927 19.26 146.227 19.26C147.647 19.26 148.867 18.86 149.867 18.04C150.867 17.22 151.367 16.06 151.367 14.54V5H149.247V6.48ZM143.787 12.14C143.187 11.54 142.887 10.8 142.887 9.9C142.887 9 143.187 8.26 143.787 7.66C144.407 7.06 145.167 6.76 146.067 6.76C146.967 6.76 147.727 7.06 148.327 7.66C148.947 8.26 149.247 9 149.247 9.9C149.247 10.8 148.947 11.54 148.327 12.14C147.727 12.74 146.967 13.04 146.067 13.04C145.167 13.04 144.407 12.74 143.787 12.14ZM161.805 15.26C163.285 15.26 164.525 14.76 165.545 13.74C166.565 12.72 167.085 11.48 167.085 10C167.085 8.52 166.565 7.28 165.545 6.26C164.525 5.24 163.285 4.74 161.805 4.74C160.345 4.74 159.085 5.24 158.065 6.26C157.045 7.28 156.525 8.52 156.525 10C156.525 11.48 157.045 12.72 158.065 13.74C159.085 14.76 160.345 15.26 161.805 15.26ZM159.585 12.26C158.985 11.66 158.685 10.9 158.685 10C158.685 9.1 158.985 8.34 159.585 7.74C160.185 7.14 160.925 6.84 161.805 6.84C162.685 6.84 163.425 7.14 164.025 7.74C164.625 8.34 164.925 9.1 164.925 10C164.925 10.9 164.625 11.66 164.025 12.26C163.425 12.86 162.685 13.16 161.805 13.16C160.925 13.16 160.185 12.86 159.585 12.26Z" fill="#E04E39"/>
</svg>
